<?xml version="1.0" encoding="UTF-8" standalone="no"?>
<!-- Created with Inkscape (http://www.inkscape.org/) -->

<svg
   xmlns:dc="http://purl.org/dc/elements/1.1/"
   xmlns:cc="http://creativecommons.org/ns#"
   xmlns:rdf="http://www.w3.org/1999/02/22-rdf-syntax-ns#"
   xmlns:svg="http://www.w3.org/2000/svg"
   xmlns="http://www.w3.org/2000/svg"
   xmlns:sodipodi="http://sodipodi.sourceforge.net/DTD/sodipodi-0.dtd"
   xmlns:inkscape="http://www.inkscape.org/namespaces/inkscape"
   width="170.01395"
   height="77.301895"
   id="svg2"
   version="1.1"
   inkscape:version="0.48.3.1 r9886"
   sodipodi:docname="plus5.svg">
  <defs
     id="defs4" />
  <sodipodi:namedview
     id="base"
     pagecolor="#ffffff"
     bordercolor="#666666"
     borderopacity="1.0"
     inkscape:pageopacity="0.0"
     inkscape:pageshadow="2"
     inkscape:zoom="2.8"
     inkscape:cx="121.34598"
     inkscape:cy="7.2823659"
     inkscape:document-units="px"
     inkscape:current-layer="text2985"
     showgrid="false"
     inkscape:window-width="1107"
     inkscape:window-height="704"
     inkscape:window-x="150"
     inkscape:window-y="150"
     inkscape:window-maximized="0"
     fit-margin-top="0"
     fit-margin-left="0"
     fit-margin-right="0"
     fit-margin-bottom="0" />
  <metadata
     id="metadata7">
    <rdf:RDF>
      <cc:Work
         rdf:about="">
        <dc:format>image/svg+xml</dc:format>
        <dc:type
           rdf:resource="http://purl.org/dc/dcmitype/StillImage" />
        <dc:title></dc:title>
      </cc:Work>
    </rdf:RDF>
  </metadata>
  <g
     inkscape:label="Layer 1"
     inkscape:groupmode="layer"
     id="layer1"
     transform="translate(42.059152,7.3085683)">
    <g
       style="font-size:40px;font-style:normal;font-weight:normal;line-height:125%;letter-spacing:0px;word-spacing:0px;fill:#000000;fill-opacity:1;stroke:none;font-family:Sans"
       id="text2985">
      <path
         d="m -16.999839,56.225077 0,-21.12533 -25.059313,0 0,-8.828497 25.059313,0 0,-20.9676801 10.6769034,0 0,20.9676801 25.0593166,0 0,8.828497 -25.0593166,0 0,21.12533 z"
         id="path2990"
         inkscape:connector-curvature="0"
         style="fill:#ba00cb;fill-opacity:0.49019607999999998;stroke:#000000;stroke-opacity:1" />
      <path
         d="m 66.908045,48.500145 11.870205,-0.84081 c 0.879256,4.834669 2.920426,8.469414 6.123517,10.904244 3.203042,2.434851 7.065565,3.65227 11.587576,3.652265 5.443087,5e-6 10.048807,-1.716644 13.817167,-5.149958 3.76827,-3.433289 5.65242,-7.987666 5.65248,-13.663149 -6e-5,-5.395162 -1.81094,-9.651753 -5.43266,-12.769788 -3.62182,-3.11796 -8.36362,-4.67696 -14.225404,-4.677004 -3.642738,4.4e-5 -6.929544,0.691958 -9.860431,2.07575 -2.930936,1.38387 -5.233794,3.179346 -6.908582,5.386434 l -10.614098,-1.156114 8.918354,-39.5705833 45.785061,0 0,9.038699 -36.741097,0 -4.96162,20.7049283 c 5.526841,-3.223055 11.325859,-4.834602 17.397068,-4.834653 8.039029,5.1e-5 14.821999,2.329789 20.348919,6.989226 5.5268,4.659522 8.29023,10.650284 8.2903,17.972295 -7e-5,6.971729 -2.42854,12.997523 -7.28542,18.077398 -5.90375,6.236004 -13.96375,9.354002 -24.180037,9.354004 -8.374067,-2e-6 -15.209371,-1.961889 -20.505931,-5.885664 -5.296588,-3.923768 -8.321707,-9.12627 -9.075367,-15.60752 z"
         id="path2992"
         inkscape:connector-curvature="0"
         style="fill:#ba00cb;stroke:#000000;stroke-opacity:1;fill-opacity:0.49019607999999998" />
      <path
         style="fill:none;stroke:none;fill-opacity:1"
         d="m 25.060268,52.698101 0,-10.535715 -12.5,0 -12.49999977,0 0,-4.285714 0,-4.285714 12.49999977,0 12.5,0 0,-10.357143 0,-10.357143 5.178572,0 5.178571,0 0,10.357143 0,10.357143 12.678572,0 12.678571,0 0,4.285714 0,4.285714 -12.678571,0 -12.678572,0 0,10.535715 0,10.535714 -5.178571,0 -5.178572,0 0,-10.535714 z"
         id="path2994"
         inkscape:connector-curvature="0"
         transform="translate(-42.059152,-7.3085683)" />
      <path
         style="fill:none;fill-opacity:0.49019607999999998"
         d="m 25.274554,52.698101 0,-10.535715 -12.5,0 -12.50000006,0 0,-4.285714 0,-4.285714 12.50000006,0 12.5,0 0,-10.357143 0,-10.357143 5,0 5,0 0,10.357143 0,10.357143 12.678571,0 12.678572,0 0,4.285714 0,4.285714 -12.678572,0 -12.678571,0 0,10.535715 0,10.535714 -5,0 -5,0 0,-10.535714 z"
         id="path3786"
         inkscape:connector-curvature="0"
         transform="translate(-42.059152,-7.3085683)" />
      <path
         style="fill:none"
         d="m 25.274554,52.698101 0,-10.535715 -12.5,0 -12.50000006,0 0,-4.285714 0,-4.285714 12.50000006,0 12.5,0 0,-10.357143 0,-10.357143 5,0 5,0 0,10.357143 0,10.357143 12.678571,0 12.678572,0 0,4.285714 0,4.285714 -12.678572,0 -12.678571,0 0,10.535715 0,10.535714 -5,0 -5,0 0,-10.535714 z"
         id="path3788"
         inkscape:connector-curvature="0"
         transform="translate(-42.059152,-7.3085683)" />
    </g>
  </g>
</svg>
