<?xml version="1.0" encoding="UTF-8" standalone="no"?>
<!-- Created with Inkscape (http://www.inkscape.org/) -->

<svg
   xmlns:dc="http://purl.org/dc/elements/1.1/"
   xmlns:cc="http://creativecommons.org/ns#"
   xmlns:rdf="http://www.w3.org/1999/02/22-rdf-syntax-ns#"
   xmlns:svg="http://www.w3.org/2000/svg"
   xmlns="http://www.w3.org/2000/svg"
   xmlns:sodipodi="http://sodipodi.sourceforge.net/DTD/sodipodi-0.dtd"
   xmlns:inkscape="http://www.inkscape.org/namespaces/inkscape"
   width="170.01395"
   height="77.301895"
   id="svg2"
   version="1.1"
   inkscape:version="0.48.3.1 r9886"
   sodipodi:docname="plus5.svg">
  <defs
     id="defs4" />
  <sodipodi:namedview
     id="base"
     pagecolor="#ffffff"
     bordercolor="#666666"
     borderopacity="1.0"
     inkscape:pageopacity="0.0"
     inkscape:pageshadow="2"
     inkscape:zoom="2.8"
     inkscape:cx="91.656042"
     inkscape:cy="7.2823659"
     inkscape:document-units="px"
     inkscape:current-layer="text2985"
     showgrid="false"
     inkscape:window-width="1107"
     inkscape:window-height="704"
     inkscape:window-x="150"
     inkscape:window-y="150"
     inkscape:window-maximized="0"
     fit-margin-top="0"
     fit-margin-left="0"
     fit-margin-right="0"
     fit-margin-bottom="0" />
  <metadata
     id="metadata7">
    <rdf:RDF>
      <cc:Work
         rdf:about="">
        <dc:format>image/svg+xml</dc:format>
        <dc:type
           rdf:resource="http://purl.org/dc/dcmitype/StillImage" />
        <dc:title></dc:title>
      </cc:Work>
    </rdf:RDF>
  </metadata>
  <g
     inkscape:label="Layer 1"
     inkscape:groupmode="layer"
     id="layer1"
     transform="translate(42.059152,7.3085683)">
    <g
       style="font-size:40px;font-style:normal;font-weight:normal;line-height:125%;letter-spacing:0px;word-spacing:0px;fill:#000000;fill-opacity:1;stroke:none;font-family:Sans"
       id="text2985">
      <g
         style="line-height:125%;fill:#ba00cb;font-family:Sans;fill-opacity:0.49019607999999998;stroke:#000000;stroke-opacity:1"
         id="text5224">
        <path
           d="m -0.5658493,34.86721 5.3046875,1.339844 c -1.1120163,4.356779 -3.1126653,7.679042 -6.0019531,9.966797 -2.8893523,2.287761 -6.4212498,3.43164 -10.5957031,3.431641 -4.32033,-10e-7 -7.833998,-0.879557 -10.541016,-2.638672 -2.707039,-1.759111 -4.766933,-4.306635 -6.179687,-7.642578 -1.412764,-3.335925 -2.119144,-6.917953 -2.119141,-10.746094 -3e-6,-4.174455 0.797523,-7.815727 2.392578,-10.923828 1.595046,-3.108039 3.864575,-5.468714 6.808594,-7.082031 2.943996,-1.6132418 6.184227,-2.4198816 9.720703,-2.4199224 4.0103911,4.08e-5 7.3827836,1.0208731 10.1171877,3.0625004 2.7343404,2.041702 4.6392864,4.912793 5.7148437,8.613281 l -5.2226562,1.230469 c -0.9297189,-2.916636 -2.2786759,-5.040332 -4.046875,-6.371094 -1.7682557,-1.330694 -3.9922118,-1.996058 -6.6718752,-1.996094 -3.080747,3.6e-5 -5.655615,0.738317 -7.724609,2.214844 -2.069022,1.476595 -3.522797,3.459015 -4.361328,5.947266 -0.838551,2.488306 -1.257821,5.054059 -1.257813,7.697265 -8e-6,3.408871 0.496736,6.38478 1.490235,8.927735 0.993478,2.542977 2.538399,4.443366 4.634765,5.701171 2.096338,1.257817 4.365867,1.886723 6.808594,1.886719 2.9713299,4e-6 5.4869524,-0.856766 7.5468749,-2.570312 2.0598651,-1.713534 3.4543949,-4.2565 4.1835938,-7.628907 z"
           style="font-size:56px;fill:#ba00cb;fill-opacity:0.49019607999999998;stroke:#000000;stroke-opacity:1"
           id="path5229" />
        <path
           d="m 29.621651,45.339867 c -1.822938,1.549481 -3.577493,2.64323 -5.263672,3.28125 -1.686214,0.63802 -3.495457,0.95703 -5.427735,0.957031 -3.190112,-10e-7 -5.641933,-0.779297 -7.355468,-2.337891 -1.7135449,-1.55859 -2.5703148,-3.550125 -2.5703128,-5.974609 -2e-6,-1.421866 0.3235654,-2.720693 0.9707031,-3.896484 0.6471317,-1.175769 1.4947867,-2.119127 2.5429687,-2.830079 1.048171,-0.710922 2.228508,-1.248682 3.541016,-1.613281 0.966135,-0.255192 2.424467,-0.501285 4.375,-0.738281 3.973941,-0.473941 6.899719,-1.039045 8.777343,-1.695313 0.01821,-0.67446 0.02732,-1.102845 0.02734,-1.285156 -2.2e-5,-2.005186 -0.464865,-3.417945 -1.394531,-4.238281 -1.257832,-1.111954 -3.12632,-1.667943 -5.605469,-1.667969 -2.315117,2.6e-5 -4.0241,0.405624 -5.126953,1.216797 -1.102874,0.811222 -1.918628,2.246767 -2.447266,4.306641 l -4.8124996,-0.65625 c 0.4374966,-2.059873 1.1575486,-3.723283 2.1601566,-4.990235 1.002598,-1.2669 2.451815,-2.242159 4.347656,-2.925781 1.895822,-0.683564 4.092434,-1.025361 6.589844,-1.025391 2.479148,3e-5 4.493469,0.291696 6.042968,0.875 1.549456,0.583362 2.688778,1.317085 3.417969,2.201172 0.729141,0.884141 1.239557,2.000676 1.53125,3.34961 0.164036,0.838564 0.246067,2.351583 0.246094,4.539062 l 0,6.5625 c -2.7e-5,4.575529 0.10479,7.469406 0.314453,8.681641 0.209608,1.212242 0.624321,2.37435 1.244141,3.486328 l -5.140625,0 c -0.51044,-1.020832 -0.838565,-2.214842 -0.984375,-3.582031 z M 29.211494,34.347679 c -1.786478,0.729181 -4.466163,1.348972 -8.039062,1.859375 -2.02345,0.291679 -3.454438,0.619804 -4.292969,0.984375 -0.838551,0.364595 -1.485685,0.897797 -1.941406,1.59961 -0.455737,0.701832 -0.683601,1.481128 -0.683594,2.33789 -7e-6,1.312507 0.496737,2.406256 1.490235,3.28125 0.993479,0.875004 2.447254,1.312503 4.361328,1.3125 1.895818,3e-6 3.582014,-0.41471 5.058593,-1.24414 1.476543,-0.829422 2.561178,-1.964187 3.253907,-3.404297 0.528624,-1.111971 0.792946,-2.752594 0.792968,-4.921875 z"
           style="font-size:56px;fill:#ba00cb;fill-opacity:0.49019607999999998;stroke:#000000;stroke-opacity:1"
           id="path5231" />
        <path
           d="m 52.590401,44.519554 0.710937,4.347656 c -1.38543,0.291667 -2.625012,0.4375 -3.71875,0.4375 -1.786468,0 -3.171883,-0.282552 -4.15625,-0.847656 -0.984381,-0.565103 -1.677089,-1.307941 -2.078125,-2.228515 -0.401046,-0.92057 -0.601567,-2.857417 -0.601562,-5.810547 l 0,-16.707032 -3.609375,0 0,-3.828125 3.609375,0 0,-7.191406 4.894531,-2.9531249 0,10.1445309 4.949219,0 0,3.828125 -4.949219,0 0,16.980469 c -1e-5,1.403653 0.08658,2.305996 0.259766,2.707031 0.173167,0.401047 0.455719,0.720057 0.847656,0.957032 0.391916,0.236983 0.952462,0.355473 1.68164,0.355468 0.546863,5e-6 1.266914,-0.0638 2.160157,-0.191406 z"
           style="font-size:56px;fill:#ba00cb;fill-opacity:0.49019607999999998;stroke:#000000;stroke-opacity:1"
           id="path5233" />
        <path
           d="m 76.324776,38.285179 4.839843,0.628906 c -0.528672,3.335945 -1.882187,5.94727 -4.060546,7.833985 -2.178407,1.886719 -4.853535,2.830077 -8.025391,2.830078 -3.97397,-10e-7 -7.168628,-1.298828 -9.583984,-3.896484 -2.415368,-2.597651 -3.623049,-6.320954 -3.623047,-11.169922 -2e-6,-3.135399 0.519528,-5.878886 1.558593,-8.230469 1.039058,-2.351538 2.620437,-4.115208 4.744141,-5.291016 2.123687,-1.175752 4.434232,-1.763642 6.931641,-1.763672 3.153627,3e-5 5.733051,0.797555 7.738281,2.392579 2.005183,1.595077 3.290338,3.860049 3.855469,6.794921 l -4.785157,0.738282 c -0.45575,-1.950499 -1.26239,-3.417946 -2.419921,-4.402344 -1.157571,-0.98435 -2.556658,-1.476537 -4.197266,-1.476563 -2.47918,2.6e-5 -4.493501,0.888697 -6.042969,2.666016 -1.549487,1.777365 -2.324226,4.589211 -2.324219,8.435547 -7e-6,3.901052 0.747388,6.735685 2.242188,8.503906 1.494781,1.768234 3.4453,2.652347 5.851562,2.652344 1.932275,3e-6 3.545554,-0.592444 4.839844,-1.777344 1.29425,-1.184889 2.114561,-3.007804 2.460938,-5.46875 z"
           style="font-size:56px;fill:#ba00cb;fill-opacity:0.49019607999999998;stroke:#000000;stroke-opacity:1"
           id="path5235" />
        <path
           d="m 85.375557,48.921898 0,-40.0859376 4.921875,0 0,14.3828126 c 2.296864,-2.66143 5.195299,-3.992158 8.695312,-3.992188 2.151026,3e-5 4.019506,0.423858 5.605466,1.271485 1.58592,0.847684 2.72068,2.018906 3.4043,3.513672 0.68357,1.494815 1.02536,3.664083 1.02539,6.507812 l 0,18.402344 -4.92187,0 0,-18.402344 c -3e-5,-2.460916 -0.53323,-4.25193 -1.59961,-5.373047 -1.06643,-1.121069 -2.574892,-1.681615 -4.525394,-1.68164 -1.458348,2.5e-5 -2.830092,0.37828 -4.115235,1.134765 -1.285167,0.756534 -2.201182,1.781924 -2.748047,3.076172 -0.546883,1.294291 -0.820321,3.080747 -0.820312,5.359375 l 0,15.886719 z"
           style="font-size:56px;fill:#ba00cb;fill-opacity:0.49019607999999998;stroke:#000000;stroke-opacity:1"
           id="path5237" />
      </g>
    </g>
  </g>
</svg>
